<?xml version="1.0" encoding="utf-8"?>
<!-- Generator: Adobe Illustrator 23.1.1, SVG Export Plug-In . SVG Version: 6.00 Build 0)  -->
<svg version="1.1" id="圖層_1" xmlns="http://www.w3.org/2000/svg" xmlns:xlink="http://www.w3.org/1999/xlink" x="0px" y="0px"
	 viewBox="0 0 24 24" style="enable-background:new 0 0 24 24;" xml:space="preserve">
<style type="text/css">
	.st0{fill-rule:evenodd;clip-rule:evenodd;fill:#D9CD90;}
</style>
<title>Facebook Copy</title>
<desc>Created with Sketch.</desc>
<g id="Page-1">
	<g id="woody_index" transform="translate(-1200.000000, -4278.000000)">
		<g id="Group-7" transform="translate(1200.000000, 4278.000000)">
			<path id="Facebook-Copy" class="st0" d="M24,22.7c0,0.7-0.6,1.3-1.3,1.3h-6.1v-9.3h3.1l0.5-3.6h-3.6V8.8c0-1,0.3-1.8,1.8-1.8h1.9
				V3.8c-0.3,0-1.5-0.1-2.8-0.1c-2.8,0-4.7,1.7-4.7,4.8v2.7H9.7v3.6h3.1V24H1.3C0.6,24,0,23.4,0,22.7V1.3C0,0.6,0.6,0,1.3,0h21.4
				C23.4,0,24,0.6,24,1.3V22.7"/>
		</g>
	</g>
</g>
</svg>
