<?xml version="1.0" encoding="utf-8"?>
<!-- Generator: Adobe Illustrator 23.1.1, SVG Export Plug-In . SVG Version: 6.00 Build 0)  -->
<svg version="1.1" id="圖層_1" xmlns="http://www.w3.org/2000/svg" xmlns:xlink="http://www.w3.org/1999/xlink" x="0px" y="0px"
	 viewBox="0 0 24 24" style="enable-background:new 0 0 24 24;" xml:space="preserve">
<style type="text/css">
	.st0{fill-rule:evenodd;clip-rule:evenodd;fill:#D9CD90;}
</style>
<title>Instagram Copy</title>
<desc>Created with Sketch.</desc>
<g id="Page-1">
	<g id="woody_index" transform="translate(-1254.000000, -4278.000000)">
		<g id="Group-7" transform="translate(1200.000000, 4278.000000)">
			<path id="Instagram-Copy" class="st0" d="M75.1,0H56.9C55.3,0,54,1.3,54,2.8v18.3c0,1.6,1.3,2.8,2.9,2.8h18.3
				c1.6,0,2.9-1.3,2.9-2.8V2.8C78,1.3,76.7,0,75.1,0L75.1,0z M71.3,3.7C71.3,3.3,71.6,3,72,3h2.2C74.7,3,75,3.3,75,3.7V6
				c0,0.4-0.3,0.8-0.8,0.8H72c-0.4,0-0.7-0.3-0.7-0.8V3.7L71.3,3.7z M66,7.4c2.5,0,4.6,2.1,4.6,4.6s-2.1,4.6-4.6,4.6
				s-4.6-2.1-4.6-4.6S63.5,7.4,66,7.4L66,7.4z M75.8,21c0,0.4-0.3,0.8-0.8,0.8H57c-0.4,0-0.8-0.3-0.8-0.8V9.7h3
				c-0.4,0.6-0.5,1.6-0.5,2.3c0,4,3.3,7.3,7.3,7.3s7.3-3.3,7.3-7.3c0-0.7-0.1-1.7-0.6-2.3h3L75.8,21L75.8,21z"/>
		</g>
	</g>
</g>
</svg>
