<?xml version="1.0" encoding="utf-8"?>
<!-- Generator: Adobe Illustrator 23.1.1, SVG Export Plug-In . SVG Version: 6.00 Build 0)  -->
<svg version="1.1" id="圖層_1" xmlns="http://www.w3.org/2000/svg" xmlns:xlink="http://www.w3.org/1999/xlink" x="0px" y="0px"
	 viewBox="0 0 500 500" style="enable-background:new 0 0 500 500;" xml:space="preserve">
<style type="text/css">
	.st0{fill:#FFFFFF;}
	.st1{fill:none;}
	.st2{fill:none;stroke:#ADB49C;stroke-width:16.57;stroke-miterlimit:4.86;}
	.st3{fill:#939B80;}
	.st4{clip-path:url(#SVGID_2_);}
	.st5{fill:#10403E;}
</style>
<g>
	<path class="st0" d="M250,93.4c-83.8,0-151.6,68.3-151.6,151.6c0,49.6,24.1,93.9,61.2,121.6l5.8-7.2c-35-25.9-57.7-67.5-57.7-114.4
		c0-78.6,63.7-142.2,142.3-142.2c78.1,0,142.2,63.6,142.2,142.3c0,42.9-19,81.3-48.9,107.4l0,0l5.8,7.2
		c32.1-27.8,52.5-68.8,52.5-114.6c0,0,0,0,0-0.1C401.6,161.2,333.7,93.4,250,93.4z"/>
</g>
<title>top_Logo</title>
<rect x="98.4" y="93.4" class="st1" width="303" height="303"/>
<path class="st2" d="M125.1,283.7c7.2,0,14.2-1.6,20.7-4.8c6.6-3.2,12.7-7.3,18.1-12.1c5.2-4.5,9.8-9.6,13.9-15.2
	c4.5-5.9,8.4-12.3,11.6-19c3.3-6.9,5.9-14.2,7.8-21.6c1.9-7.2,2.8-14.6,2.8-22c0.1-5.6-0.8-11.1-2.5-16.4c-1.4-4.5-3.9-8.7-7.3-12
	c-3.1-3-7.3-4.6-11.6-4.5c-5,0-9.8,1.6-13.9,4.5c-4.5,3.2-8.5,7-11.9,11.4c-3.5,4.5-6.7,9.3-9.4,14.4c-2.3,4.3-4.4,8.7-6.2,13.3
	l-6.3,16.8c-1.9,5.8-3.8,11.9-5.7,18.2c-1.8,6.3-3.3,12.4-4.5,18.2c-0.2,1.4-0.6,3.5-1.1,6.2c-0.6,2.8-1.1,5.7-1.7,8.7
	c-0.6,3.1-1.1,5.9-1.5,8.6c-0.3,1.9-0.5,3.8-0.6,5.8c1.3,0.5,2.7,0.9,4.1,1.1C121.8,283.5,123.5,283.7,125.1,283.7z M116.1,249.8
	c0-0.1,0-0.1,0.1-0.1s0.1-0.1,0.1-0.2l2-7.7c1.4-5.9,3.2-12.4,5.4-19.6c2.2-7.2,4.8-14.4,7.7-21.7c2.8-7.1,6-13.9,9.7-20.5
	c3.1-5.7,7-11,11.6-15.7c3.6-3.7,7.6-7,11.9-9.9c4.4-2.8,9.5-4.2,14.6-4.1c4.2-0.1,8.4,1.1,12,3.3c3.7,2.3,6.7,5.5,9,9.1
	c2.9,4.7,4.9,9.8,5.8,15.3c1,5.7,1.2,11.4,0.7,17.1c-0.5,5.8-1.5,11.6-2.9,17.2c-1.2,5.2-2.8,10.3-4.6,15.2
	c-2.9,7.7-6.7,14.9-11.3,21.6c-5,7.3-10.8,14-17.2,20.1c-6.3,6-13.4,11-21.2,14.8c-7.3,3.6-15.4,5.5-23.6,5.6
	c-2.1,0.1-4.2-0.2-6.2-0.8c-1.5-0.5-3.1-0.8-4.6-0.9l-2.2,26.4c-0.3,2.1-0.4,4.2-0.5,6.4c-0.1,3-0.2,6-0.3,8.9
	c0,2.3-0.2,4.6-0.5,6.9c-0.2,2.6-0.4,5-0.5,7.4c-0.1,2-0.3,3.9-0.8,5.9c-0.2,1.3-1.3,2.3-2.7,2.2c-0.9,0-1.8-0.2-2.6-0.6
	c-0.6-2.7-0.8-5.6-0.8-8.4c-0.1-3.9,0-8.2,0.1-12.8c0.1-4.6,0.2-9,0.4-13.1c0.2-4.1,0.3-7.1,0.3-9.2c0-2.4,0.1-4.5,0.2-6.3
	s0.2-3.8,0.2-5.8c0-2.5,0.1-4.5,0.2-6.2s0.2-3.5,0.2-5.6c-0.6-0.6-1.2-1.1-1.9-1.5c-0.7-0.4-1.4-0.9-2-1.3c-2-1.4-2.9-2.8-2.8-4.2
	c0.1-1.4,0.8-2.1,1.9-2.1c0.7,0,1.4,0.2,1.9,0.7c0.6,0.3,1.2,0.7,1.8,1.1c0.3,0.3,0.6,0.4,1,0.5c0.4,0,0.6-0.6,0.6-1.8
	s0-3.3,0.1-6.3c0-1,0-1.9,0.2-2.9c0.2-0.9,0.3-1.8,0.3-2.8c0.1-1.1,0.1-2.2,0.1-3.3c0-1.1,0-2.2,0.1-3.3c0.1-1.2,0.2-2.2,0.3-2.9
	c0.1-1.1,0.2-2.2,0.2-3.2c0-3.3,0.1-7.3,0.3-11.8c0.2-4.5,0.4-9.1,0.7-13.6c0.3-4.5,0.4-8.5,0.4-12c0-2.2,0.1-5,0.2-8.6
	s0.2-7.5,0.2-11.5s-0.1-7.8-0.3-11.3c0-2.7-0.6-5.3-1.6-7.8c-1.4,1-2.6,2.4-3.4,4c-1.1,2-2.1,4-3,6.1c-0.9,2.1-1.7,4-2.3,5.6
	c-1.1,3.1-2,6.4-2.6,9.6c-0.7,3.7-1.4,7-1.9,9.8c-0.4,3.7-0.6,7.5-0.4,11.2c0.1,3.5,0.5,7.1,1.1,10.6c0.4,2.7,1.2,5.3,2.4,7.7
	c0.6,1.1,1.4,2.1,2.4,2.8c0.7,0.3,1.2,0.9,1.5,1.6c0.5,0.6,0.6,1.4,0.2,2.1c-0.4,0.7-1.2,1-1.9,1c-1.3-0.1-2.5-0.7-3.5-1.6
	c-1.7-1.6-3-3.6-3.8-5.7c-1-2.7-1.8-5.6-2.3-8.5c-0.3-2.4-0.7-5.3-1.1-8.6c-0.1-0.9-0.1-1.8,0.1-2.6c0.2-1.1,0.3-2.1,0.2-3.2
	c0-5.8,0.6-11.6,1.8-17.3c1.2-5.5,2.9-10.9,4.9-16.1c0.7-1.5,1.6-3.5,2.7-5.8c1.1-2.3,2.4-4.4,4-6.4c1.6-1.9,3.2-2.9,4.9-2.9
	c2.2,0,4.2,1.1,5.3,2.9c1.4,2.2,2.4,4.7,2.8,7.3c0.6,3.1,1,6.2,1.2,9.4c0.2,3.3,0.3,6.3,0.3,9c0,9.3-0.1,18.4-0.4,27.3
	C116.2,232.5,116,241.2,116.1,249.8L116.1,249.8z M207.5,255.2c0-5.8,0.4-11.6,1-17.4c0.7-6.3,1.5-12.5,2.6-18.6s2.3-11.7,3.6-16.7
	c0.6-1.6,1.1-3.4,1.6-5.4c0.5-1.8,1.2-3.5,2.1-5.2c0.6-1.3,2-2.2,3.4-2.2c1-0.2,2.1,0.5,2.4,1.5c0.3,1.1,0.3,2.3,0.1,3.5
	c-0.2,1.3-0.6,2.5-1.1,3.7c-0.4,1.1-0.7,1.9-0.8,2.3c-0.9,3.2-1.9,7.6-3,13.2s-2.2,11.6-3.2,18.2c-1,6.6-1.8,13.1-2.4,19.6
	c-0.5,5.8-0.6,11.7-0.3,17.5c0.3,5.2,1.2,9.2,2.6,12c1.9-1,3.5-2.5,4.5-4.4c1.1-1.8,2.2-3.7,3.1-5.6c2.5-4.7,4.9-9.7,7.3-15
	c2.4-5.3,4.8-10.2,7.5-14.9c0.9-1.7,1.8-2.6,2.7-2.6c0.4,0,0.8,0.2,1.1,0.6c0.3,0.4,0.4,0.8,0.4,1.2c-0.3,1.1-0.7,2.1-1.3,3.1
	c-0.9,1.7-1.8,3.5-2.7,5.3s-1.5,3-1.8,3.6c-1.1,2.3-2.3,4.9-3.7,7.9c-1.4,3-2.7,6-3.9,8.9c-1.1,2.5-2.3,5-3.7,7.4l-2.2,3.5
	c-0.8,1.4-1.8,2.7-3,3.8c-1,1-2.3,1.6-3.7,1.6c-2.2,0-4.2-1.3-5.1-3.2c-1.4-2.5-2.3-5.3-2.7-8.1c-0.5-3.3-0.9-6.7-1-10
	C207.6,260.8,207.5,257.8,207.5,255.2L207.5,255.2z M235.7,251.3c0.1-2.9,0.6-5.7,1.6-8.4c1.1-3.5,2.6-6.8,4.5-9.9
	c1.8-3.1,4-5.8,6.7-8.1c2.2-2,5-3.2,8-3.2c2.3-0.1,4.6,0.7,6.3,2.2c1.4,1.2,2.5,2.8,2.9,4.6c0.3,1.6-0.2,2.3-1.6,2.3
	c-1.3-0.1-2.5-0.8-3.3-1.9c-1-1.2-2.4-1.8-3.9-1.9c-1.2,0-2.6,0.7-4.3,2.1s-3.7,4.1-6.1,8.2c-1.3,2.1-2.3,4.4-3,6.7
	c-0.9,2.6-1.3,5.4-1.3,8.2l0.2-0.2c-0.1,0.1,0.1-0.1,0.6-0.6l1.3-1.9c0.9-1.3,1.9-3,3-5c1.1-2,2.3-4.1,3.5-6.2
	c1.2-2.1,2.3-3.9,3.2-5.3s1.7-2.2,2.2-2.2c2,0,3.1,0.7,3.4,2.1c0.3,1.7,0.5,3.4,0.4,5.2c0,2.1,0.2,4.1,0.6,6.1
	c0.4,2.4,1.4,4.6,3,6.4c1.2,1.3,2.9,2,4.6,2c3,0,6.4-1.8,10-5.5c1.2-1,2.3-2.2,3.2-3.5c0.8-1.1,1.7-2.2,2.6-3.2
	c0.6-1,1.7-1.6,2.9-1.6c1.2,0,1.7,1,1.5,3s-2.3,5-6.4,9l-4.9,3.9c-2.6,2-5.8,3.1-9.1,3.2c-2.5,0-5-0.8-7-2.4c-2-1.6-3.6-3.7-4.6-6
	c-1-2.2-1.6-4.5-1.6-6.9c-1.1,1-2,2.2-2.6,3.6c-1,1.8-2,3.8-3.2,5.9c-1,1.9-2.2,3.7-3.5,5.5c-1.2,1.5-2.4,2.3-3.6,2.3
	c-3,0-4.9-0.7-5.5-2.1C235.9,255.7,235.6,253.5,235.7,251.3L235.7,251.3z M287.1,259.2c-2,0-3.4-1.2-4-3.7c-0.6-3.1-0.7-6.2-0.2-9.3
	c0.5-3.8,1.3-7.5,2.4-11.2c0.9-3.2,2.2-6.4,3.8-9.3c1.4-2.5,2.7-3.7,3.9-3.7c1.8,0,2.7,0.9,2.6,2.5c-0.2,2.3-0.8,4.5-1.6,6.6
	c-1,2.7-2,5.8-2.9,9c-1,3.1-1.4,6.3-1.5,9.6l7.8-11.8c0.6-1.2,1.3-2.3,2.1-3.4c1.1-1.6,2.3-3.1,3.6-4.5c1-1.2,2.4-2,4-2.1
	c1.3,0,2.3,0.9,3.1,2.6l1,9c0,1,0.1,2.5,0.1,4.5c0.1,2.1,0.4,4.2,0.7,6.2c0.3,1.9,1,3.7,1.9,5.4c0.7,1.4,2.1,2.2,3.6,2.2
	c1.6,0,3.3-1,5-2.9c1.9-2.1,3.6-4.3,5.2-6.7c1.7-2.6,3.2-4.8,4.5-6.7s2.4-2.9,3.1-2.9c1.6,0,2.4,0.6,2.3,1.9c-0.2,1.5-0.8,3-1.6,4.3
	c-1,1.6-2,3.1-3,4.5c-1,1.4-1.6,2.3-1.9,2.6c-0.8,1-1.8,2.2-3.1,3.7c-1.3,1.5-2.6,2.9-4.1,4.2c-1.1,1.1-2.5,1.9-4,2.4
	c-1,0.3-2,0.5-3.1,0.5c-2.3,0.1-4.5-0.9-5.9-2.7c-1.4-1.8-2.6-3.8-3.3-6c-1-2.8-1.6-5.7-1.8-8.6c-0.1-2.5-0.1-4.7,0-6.5
	c0.2-1.4-0.1-2.8-0.7-4.1c-1.3,0.8-2.6,2.6-4.1,5.2c-1.5,2.6-3,5.4-4.5,8.3c-1.4,2.6-2.9,5.2-4.7,7.6
	C290.3,258.2,288.7,259.2,287.1,259.2L287.1,259.2z M338.5,238.4c2.4-1.3,4.7-2.8,6.8-4.5c2.3-1.5,3.8-4,4.1-6.7
	c-1.7,0.3-3.2,1.1-4.5,2.2c-1.5,1.3-2.9,2.7-4,4.4C339.8,235.2,339,236.8,338.5,238.4L338.5,238.4z M331.2,242.3
	c0.1-3.1,1-6.1,2.6-8.7c1.7-3,4-5.7,6.6-8c2.7-2.2,5.3-3.3,7.9-3.3c3.5,0,5.4,1.4,5.6,4.1c0.2,2.7-1,5.6-3.4,8.7
	c-1.8,1.8-3.7,3.4-5.8,4.9c-2.2,1.7-4.8,2.7-7.6,3c0,1.7,0,3.3,0.2,4.6c0.2,1.6,1,3,2.2,4.1c1.4,1.4,3.3,2.2,5.3,2.1
	c3.1-0.1,6.1-1,8.7-2.6c3-1.8,5.3-3.3,7-4.5l1.5-1.3l1.4-1.1c1.6-1.1,3-2.3,4.3-3.8c0.4-0.6,0.9-1.2,1.5-1.6c1-0.4,2-0.5,3.1-0.4
	c0.2,0.8,0.3,1.6,0.3,2.4c-0.2,0.7-0.7,1.4-1.2,1.9c-2,1.9-4.4,4.2-7.4,6.6c-2.9,2.5-6.1,4.6-9.5,6.5c-3.1,1.8-6.6,2.7-10.1,2.8
	c-1.7,0-3.4-0.3-4.9-0.9c-1.7-0.7-3.2-1.7-4.5-3c-1.7-1.6-2.9-3.7-3.3-6C331.3,246.6,331.2,244.4,331.2,242.3L331.2,242.3z
	 M320.7,195.6c0-1.4,1.3-2.9,3.9-4.4c3.1-1.8,6.4-3.4,9.8-4.6c3.9-1.5,8.1-3,12.4-4.3c4.3-1.4,8.4-2.5,12-3.5s6.4-1.7,8.2-2.2
	c1.6-0.5,3.1-0.9,4.7-1.1c0.7,0,1.4-0.4,1.8-1c0.4-1.2,0.8-2.4,0.9-3.7c0.9-4.4,1.9-7.5,3-9.1s2.2-2.5,3.3-2.5
	c0.9,0,1.8,0.6,2.2,1.4c0.6,1,0.9,2.1,0.9,3.3c0,1-0.1,1.4-0.2,1.2s-0.1,0.2,0,1.1c0,0.3,0,0.5,0.1,0.8c0.1,0.4,0.1,0.9,0.1,1.3
	c0,1.4-0.3,2.1-0.8,2.1c-0.5,0-1.1,0.1-1.6,0.2c-0.5,0.1-0.8,1.1-0.8,2.8c1.4,0,2.9-0.2,4.3-0.6c1.4-0.4,2.7-0.6,4.1-0.8
	c4.7-0.9,9.5-1.6,14.2-2.3c4.8-0.7,9.7-1.1,14.6-1.1c2.6,0,4.5,0.5,5.6,1.6c1.2,1.1,1.6,2.2,1.3,3.2s-1.5,1.6-3.5,1.6
	c-0.2-0.9-0.4-1.3-0.4-1.2c-0.5,0-1-0.1-1.5-0.2c-0.9-0.1-1.7-0.2-2.6-0.1c-3,0.1-6,0.3-9,0.8c-3.7,0.5-7.6,1-11.6,1.7
	c-4,0.7-7.6,1.3-10.7,1.9c-3.1,0.6-5.1,1-6.1,1.2l-3.2,33.1c-0.1,0.8-0.1,1.6-0.1,2.4c0,0.8,0.1,1.7,0.1,2.6c0,0.7,0,1.4-0.2,2.1
	c-0.2,0.7-0.3,1.5-0.2,2.3c0,2.4,0,5.1,0.2,8.2c0.1,2.4,0.1,4.8-0.2,7.2c-0.1,1-0.2,2.9-0.3,5.8c-0.1,2.9-0.1,6.2-0.2,9.9
	c0,3.8-0.1,7.6-0.1,11.4v10.4c0,3.1,0,5.4,0.1,6.8c0,1.8,0.2,3.6,0.4,5.4c0.3,2.2,0.3,4.4,0.2,6.5c-0.2,1.9-1,2.9-2.4,2.9
	c-2,0-3.3-1.1-3.7-3.4c-0.4-2.1-0.6-4.2-0.6-6.3c-0.3-3.9-0.5-8.4-0.6-13.6c-0.1-5.2-0.1-10.3,0-15.5c0.1-5.2,0.1-9.7,0.1-13.6
	l0.5-7.6V229c0-3.1,0-6.4,0.1-9.9c0.1-3.5,0.2-6.7,0.3-9.6c0-2.1,0.2-4.1,0.5-6.1c0.3-1.3,0.4-2.6,0.4-3.9c0-1.5,0.1-2.8,0.2-3.9
	l1.5-15l-2.9,0.7c-1.5,0.3-2.6,0.6-3.5,0.8c-5.3,1.3-10.3,2.7-15.1,4.1c-4.8,1.5-9.7,3.2-14.8,5.1c-0.9,0.4-1.8,0.9-2.6,1.4
	c-0.9,0.5-1.8,1-2.7,1.4c-1.3,0.5-2.1,0.9-2.5,1.1c-0.3,0.1-0.6,0.5-0.6,0.8c-0.1,0.7-0.4,1.4-0.8,2.1c-0.4,0.1-0.9,0.2-1.3,0.2
	c-0.5,0.1-1,0.1-1.5,0.1c-0.8,0-1.6-0.2-2.3-0.6C321,197.3,320.6,196.4,320.7,195.6L320.7,195.6z"/>
<path class="st0" d="M125.1,283.6c7.2,0,14.2-1.6,20.7-4.8c6.6-3.2,12.7-7.3,18.1-12.1c5.2-4.5,9.8-9.6,13.9-15.1
	c4.5-5.9,8.4-12.3,11.6-19c3.3-6.9,6-14.2,7.8-21.6c1.8-7.2,2.8-14.5,2.8-21.9c0.1-5.6-0.8-11.1-2.5-16.4c-1.4-4.6-3.9-8.7-7.3-12.1
	c-3.1-3-7.2-4.6-11.5-4.5c-5,0-9.8,1.6-13.9,4.5c-4.5,3.2-8.5,7-11.9,11.4c-3.5,4.5-6.7,9.3-9.4,14.4c-2.3,4.3-4.4,8.7-6.2,13.2
	l-6.3,16.8c-1.9,5.8-3.8,11.9-5.7,18.2s-3.3,12.4-4.5,18.2c-0.2,1.4-0.6,3.5-1.2,6.2s-1.1,5.7-1.7,8.7s-1.1,5.9-1.4,8.6
	c-0.3,1.9-0.5,3.8-0.6,5.8c1.3,0.6,2.7,0.9,4.1,1.1C121.8,283.5,123.5,283.6,125.1,283.6z M116.1,249.9c0-0.1,0-0.2,0.1-0.2
	s0.1-0.1,0.1-0.2l1.9-7.8c1.4-5.8,3.2-12.3,5.4-19.6s4.8-14.5,7.7-21.8c2.8-7,6-13.9,9.8-20.5c3.1-5.7,7-11,11.6-15.7
	c3.6-3.7,7.6-7,11.9-9.9c4.4-2.8,9.5-4.2,14.6-4c4.2-0.1,8.4,1.1,12,3.3c3.7,2.3,6.8,5.4,9.1,9.1c2.9,4.7,4.9,9.9,5.8,15.3
	c1,5.7,1.2,11.4,0.6,17.1c-0.5,5.8-1.5,11.6-2.9,17.2c-1.3,5.2-2.8,10.2-4.7,15.2c-2.9,7.6-6.7,14.9-11.3,21.6
	c-5,7.3-10.8,14-17.2,20.1c-6.3,6-13.5,11-21.2,14.8c-7.3,3.6-15.4,5.6-23.6,5.6c-2.1,0.1-4.2-0.2-6.2-0.7c-1.5-0.5-3-0.8-4.6-0.9
	l-2.3,26.4c-0.3,2.1-0.4,4.2-0.5,6.4l-0.3,8.9c-0.1,3-0.3,5.3-0.5,6.9c-0.2,2.6-0.4,5.1-0.5,7.4c-0.1,2-0.3,3.9-0.7,5.8
	c-0.2,1.3-1.3,2.3-2.7,2.3c-0.9,0-1.8-0.2-2.6-0.6c-0.5-2.7-0.8-5.5-0.7-8.3c-0.1-3.9,0-8.2,0.1-12.9c0.1-4.6,0.2-9,0.4-13.1
	s0.2-7.2,0.2-9.2c0-2.4,0.1-4.5,0.2-6.3s0.2-3.8,0.2-5.8c0-2.5,0-4.5,0.2-6.1s0.2-3.5,0.2-5.7c-0.6-0.6-1.2-1-1.9-1.4
	c-0.7-0.4-1.4-0.9-2-1.3c-2-1.4-2.9-2.8-2.8-4.2c0.1-1.4,0.8-2.1,2-2.1c0.7,0,1.4,0.2,1.9,0.6c0.6,0.3,1.2,0.7,1.8,1.1
	c0.3,0.3,0.6,0.4,1,0.5c0.4,0,0.6-0.6,0.6-1.8s0-3.3,0.1-6.3c0-1,0-2,0.2-2.9c0.2-0.9,0.3-1.8,0.2-2.8c0.1-1.1,0.1-2.2,0.1-3.3
	c-0.1-1.1,0-2.2,0.1-3.3c0.1-1.2,0.2-2.1,0.3-2.9c0.1-1.1,0.2-2.2,0.2-3.2c0-3.3,0.1-7.3,0.3-11.8c0.2-4.5,0.5-9.1,0.7-13.6
	c0.3-4.5,0.4-8.5,0.4-12c0-2.1,0.1-5,0.2-8.6s0.2-7.4,0.2-11.5s-0.1-7.8-0.3-11.3c0-2.7-0.6-5.4-1.6-7.9c-1.4,1-2.6,2.4-3.4,4
	c-1.1,2-2.1,4-3,6.1c-0.9,2.1-1.7,4-2.4,5.6c-1.1,3.1-2,6.4-2.6,9.7c-0.8,3.7-1.4,7-1.9,9.8c-0.4,3.7-0.6,7.5-0.4,11.2
	c0.1,3.5,0.5,7.1,1.1,10.6c0.4,2.7,1.2,5.3,2.4,7.7c0.6,1.1,1.4,2.1,2.4,2.8c0.7,0.3,1.2,0.9,1.5,1.6c0.5,0.6,0.6,1.5,0.2,2.1
	c-0.4,0.7-1.2,1-1.9,1c-1.3-0.1-2.5-0.7-3.5-1.6c-1.7-1.6-3-3.6-3.7-5.8c-1.1-2.7-1.8-5.6-2.3-8.5c-0.3-2.4-0.7-5.3-1.1-8.7
	c-0.1-0.9-0.1-1.8,0.1-2.6c0.2-1,0.3-2.1,0.2-3.2c0-5.8,0.6-11.6,1.8-17.3c1.2-5.5,2.9-10.9,4.9-16.2c0.6-1.5,1.5-3.4,2.6-5.8
	c1.1-2.3,2.4-4.4,4.1-6.4c1.6-1.9,3.2-2.8,4.9-2.8c2.2,0,4.2,1.1,5.3,2.9c1.4,2.2,2.4,4.7,2.8,7.4c0.6,3.1,1,6.2,1.1,9.4
	c0.2,3.3,0.2,6.3,0.2,9c0,9.3-0.1,18.4-0.4,27.3C116.2,232.4,116.1,241.2,116.1,249.9L116.1,249.9z"/>
<path class="st0" d="M207.6,255.2c0-5.8,0.4-11.7,1-17.5c0.7-6.2,1.5-12.4,2.6-18.6c1.1-6.1,2.2-11.7,3.6-16.7
	c0.5-1.6,1.1-3.4,1.6-5.4c0.5-1.8,1.2-3.6,2.1-5.2c0.6-1.3,1.9-2.2,3.4-2.2c1.1-0.1,2.1,0.5,2.4,1.5c0.3,1.1,0.4,2.3,0.1,3.5
	c-0.2,1.3-0.6,2.5-1,3.7c-0.3,0.8-0.6,1.5-0.8,2.3c-0.9,3.2-1.9,7.6-3,13.2s-2.2,11.6-3.2,18.2c-1,6.6-1.8,13.1-2.3,19.6
	c-0.5,5.8-0.6,11.7-0.3,17.5c0.3,5.2,1.2,9.2,2.6,12.1c1.9-1,3.4-2.5,4.5-4.4c1.1-1.8,2.1-3.7,3.1-5.6c2.5-4.7,4.9-9.7,7.3-15
	c2.4-5.3,4.8-10.2,7.4-14.9c0.9-1.7,1.8-2.6,2.8-2.6c0.4,0,0.8,0.2,1,0.6c0.3,0.3,0.4,0.8,0.4,1.2c-0.3,1.1-0.7,2.1-1.3,3.1
	l-2.7,5.3c-0.9,1.8-1.5,3-1.9,3.6c-1.1,2.3-2.3,4.9-3.6,7.9l-4,8.9c-1.1,2.5-2.3,5-3.7,7.5l-2.2,3.5c-0.9,1.4-1.9,2.6-3,3.8
	c-1,1-2.3,1.6-3.7,1.6c-2.2,0-4.2-1.3-5.1-3.2c-1.4-2.5-2.3-5.2-2.7-8.1c-0.5-3.3-0.9-6.7-1-10C207.6,260.8,207.6,257.8,207.6,255.2
	z"/>
<path class="st0" d="M235.7,251.3c0.1-2.9,0.6-5.7,1.6-8.4c1.1-3.5,2.7-6.8,4.5-9.9c1.8-3.1,4-5.8,6.7-8.2c2.2-2,5-3.2,8-3.2
	c4.3-0.1,8.1,2.8,9.2,6.9c0.3,1.6-0.2,2.3-1.6,2.3c-1.3-0.1-2.5-0.8-3.3-1.9c-1-1.2-2.5-1.9-4-1.9c-1.2,0-2.6,0.7-4.3,2.1
	c-1.7,1.4-3.7,4.1-6.1,8.2c-1.3,2.1-2.3,4.4-3,6.7c-0.9,2.6-1.4,5.4-1.4,8.2c0.2-0.2,0.3-0.3,0.2-0.2s0.1-0.1,0.6-0.6l1.3-1.9
	c0.9-1.3,1.9-3,3-5c1.1-2,2.3-4.1,3.5-6.2c1.2-2.1,2.3-3.9,3.2-5.3s1.7-2.2,2.2-2.2c1.9,0,3.1,0.7,3.4,2.1c0.4,1.7,0.5,3.4,0.4,5.2
	c-0.1,2.1,0.1,4.1,0.6,6.1c0.4,2.4,1.4,4.6,3,6.4c1.2,1.3,2.9,2,4.6,2c3,0,6.3-1.8,10-5.5c1.2-1.1,2.3-2.2,3.2-3.5
	c0.8-1.1,1.7-2.2,2.6-3.2c0.6-1,1.7-1.6,2.9-1.6c1.2,0,1.7,1,1.5,3s-2.3,5-6.4,9l-4.9,3.9c-2.6,2-5.7,3.1-9,3.2
	c-2.6,0-5.1-0.8-7-2.4c-2-1.6-3.6-3.7-4.6-6c-1-2.2-1.6-4.6-1.6-7c-1.1,1-2,2.2-2.6,3.6c-1,1.8-2,3.8-3.2,5.9
	c-1,1.9-2.2,3.8-3.5,5.5c-1.2,1.6-2.4,2.3-3.6,2.3c-3,0-4.8-0.7-5.5-2.1C235.9,255.7,235.6,253.5,235.7,251.3z"/>
<path class="st0" d="M287.1,259.2c-2,0-3.4-1.2-4-3.7c-0.6-3.1-0.7-6.2-0.2-9.3c0.5-3.8,1.2-7.5,2.4-11.1c0.9-3.2,2.2-6.3,3.8-9.3
	c1.4-2.5,2.7-3.7,3.9-3.7c1.8,0,2.7,0.8,2.6,2.5c-0.2,2.3-0.8,4.5-1.6,6.6c-1,2.8-1.9,5.8-2.9,9.1c-0.9,3.1-1.4,6.4-1.4,9.6
	l7.8-11.8c0.6-1.2,1.3-2.3,2.1-3.4c1.1-1.6,2.3-3.1,3.6-4.6c1-1.2,2.4-2,4-2.1c1.3,0,2.3,0.9,3.1,2.6l1,9.1c0,1,0,2.5,0.1,4.5
	c0.1,2.1,0.4,4.2,0.7,6.2c0.3,1.9,0.9,3.7,1.9,5.4c0.7,1.4,2,2.2,3.6,2.2c1.6,0,3.3-1,5.1-2.9c1.9-2.1,3.6-4.3,5.2-6.7
	c1.7-2.5,3.2-4.8,4.5-6.7s2.4-2.9,3.1-2.9c1.6,0,2.4,0.6,2.3,1.9c-0.2,1.5-0.8,3-1.6,4.3c-1,1.6-2,3.1-3,4.5s-1.6,2.3-1.9,2.6
	c-0.8,1-1.8,2.2-3.1,3.7c-1.3,1.5-2.6,2.9-4,4.2c-1.1,1.1-2.5,2-4,2.4c-1,0.3-2,0.5-3.1,0.5c-2.3,0.1-4.5-0.9-5.9-2.8
	c-1.4-1.8-2.5-3.8-3.3-6c-1-2.8-1.6-5.7-1.8-8.6c-0.1-2.5-0.1-4.7,0-6.5c0.2-1.4,0-2.8-0.6-4.1c-1.7,1.4-3.2,3.2-4.1,5.2
	c-1.5,2.6-3,5.4-4.5,8.3c-1.4,2.6-2.9,5.2-4.7,7.6C290.3,258.2,288.7,259.2,287.1,259.2z"/>
<path class="st0" d="M338.5,238.4c2.4-1.3,4.6-2.8,6.8-4.4c2.3-1.5,3.8-4,4.1-6.7c-1.7,0.3-3.2,1.1-4.5,2.3c-1.5,1.3-2.9,2.7-4,4.4
	C339.8,235.2,339,236.8,338.5,238.4z M331.2,242.3c0.1-3.1,1-6.1,2.7-8.7c1.7-3,3.9-5.8,6.6-8c2.7-2.2,5.3-3.3,7.8-3.3
	c3.6,0,5.4,1.3,5.6,4c0.2,2.7-1,5.6-3.5,8.7c-1.8,1.8-3.7,3.4-5.8,4.9c-2.2,1.7-4.8,2.7-7.6,3.1c0,1.7,0,3.3,0.2,4.6
	c0.2,1.6,1,3.1,2.2,4.1c1.4,1.4,3.4,2.2,5.4,2.1c3.1-0.1,6.1-1,8.7-2.7c2.4-1.4,4.7-2.9,7-4.5c0.6-0.5,1.2-0.9,1.5-1.3
	s0.8-0.7,1.4-1.1c1.6-1.1,3-2.4,4.3-3.8c0.4-0.6,0.9-1.2,1.5-1.6c1-0.4,2-0.5,3.1-0.4c0.2,0.8,0.3,1.6,0.2,2.4
	c-0.2,0.7-0.7,1.4-1.2,1.9c-2,1.9-4.4,4.2-7.4,6.6c-3,2.5-6.1,4.6-9.5,6.5c-3.1,1.7-6.6,2.7-10.1,2.7c-1.7,0-3.4-0.3-4.9-0.9
	c-1.7-0.7-3.2-1.7-4.4-3c-1.7-1.6-2.9-3.7-3.3-6C331.4,246.5,331.2,244.4,331.2,242.3L331.2,242.3z"/>
<path class="st0" d="M320.7,195.5c0-1.4,1.3-2.9,3.9-4.4c3.1-1.8,6.4-3.4,9.8-4.6c3.9-1.5,8.1-2.9,12.4-4.3c4.4-1.4,8.4-2.5,12-3.5
	c3.7-1,6.4-1.7,8.2-2.3c1.6-0.5,3.1-0.9,4.8-1.1c0.7,0,1.4-0.4,1.8-1c0.4-1.2,0.7-2.4,0.9-3.6c0.9-4.4,1.9-7.5,3-9.1
	c1.1-1.7,2.2-2.5,3.3-2.5c0.9,0,1.7,0.6,2.2,1.4c0.6,1,0.9,2.1,0.9,3.3c0,1-0.1,1.4-0.2,1.2s-0.1,0.2,0,1c0,0.3,0,0.5,0.1,0.8
	c0.1,0.4,0.1,0.8,0.1,1.3c0,1.4-0.3,2.1-0.8,2.1c-0.5,0-1.1,0.1-1.6,0.2c-0.5,0.2-0.8,1.1-0.8,2.8c1.4,0,2.9-0.2,4.3-0.6
	c1.4-0.4,2.7-0.6,4.1-0.7c4.7-0.9,9.5-1.6,14.2-2.3c4.8-0.7,9.7-1.1,14.6-1.1c2.6,0,4.5,0.5,5.6,1.6c1.2,1.1,1.6,2.1,1.3,3.2
	s-1.5,1.6-3.5,1.6c-0.2-0.9-0.4-1.3-0.4-1.2c-0.5,0-1-0.1-1.5-0.2c-0.9-0.1-1.7-0.2-2.6-0.1c-3,0.1-6,0.3-9,0.7
	c-3.7,0.5-7.6,1-11.6,1.7c-4,0.6-7.5,1.3-10.7,1.9c-3.1,0.6-5.2,1-6.1,1.2l-3.2,33.1c-0.1,0.8-0.1,1.6-0.1,2.4
	c0,0.9,0.1,1.7,0.1,2.6c0.1,0.7,0,1.4-0.2,2.1c-0.2,0.7-0.3,1.5-0.2,2.2c0,2.4,0,5.1,0.1,8.2c0.1,2.4,0.1,4.8-0.1,7.2
	c-0.1,1-0.2,2.9-0.2,5.8c0,2.9-0.1,6.2-0.2,9.9c0,3.8-0.1,7.6-0.1,11.4v10.4c0,3.1,0,5.4,0.1,6.8c0,1.2,0.1,3,0.4,5.4
	c0.3,2.2,0.3,4.4,0.2,6.5c-0.2,1.9-0.9,2.9-2.3,2.9c-2.1,0-3.3-1.1-3.7-3.4c-0.4-2.1-0.6-4.2-0.6-6.3c-0.3-3.9-0.5-8.4-0.6-13.6
	c-0.1-5.2-0.1-10.3,0-15.5c0.1-5.2,0.1-9.7,0.1-13.6l0.5-7.6V229c0-3.1,0-6.4,0.2-9.9s0.2-6.7,0.3-9.6c0-2.1,0.2-4.1,0.5-6.1
	c0.2-1.3,0.4-2.6,0.4-3.9c0-1.5,0.1-2.8,0.2-3.9l1.5-15c-0.4,0.1-1.4,0.3-2.8,0.6s-2.6,0.6-3.5,0.8c-5.3,1.3-10.3,2.7-15.1,4.1
	c-4.8,1.5-9.7,3.1-14.8,5.1c-0.9,0.4-1.8,0.9-2.7,1.4c-0.9,0.5-1.7,1-2.7,1.4c-0.9,0.3-1.7,0.7-2.5,1.1c-0.3,0.1-0.6,0.4-0.6,0.8
	c-0.1,0.7-0.4,1.5-0.8,2.1c-0.4,0.1-0.9,0.2-1.3,0.2c-0.5,0-0.9,0.1-1.5,0.1c-0.8,0-1.6-0.2-2.3-0.6
	C321,197.3,320.6,196.4,320.7,195.5z"/>
<path class="st0" d="M179.1,359l6.6,4c1.4,0.7,2.5,1.9,3.1,3.3c0.5,1.2,0.4,2.5-0.3,3.6c-0.5,0.8-1.2,1.4-2.1,1.8
	c-0.9,0.3-1.8,0.3-2.7,0c0.9,0.7,1.4,1.7,1.6,2.7c0.2,1.1-0.1,2.2-0.7,3.1c-0.7,1.2-1.9,2-3.3,2.2c-1.7,0.1-3.3-0.4-4.7-1.3
	l-6.8-4.1L179.1,359z M180.3,362.9l-2.4,4l3.9,2.4c0.7,0.5,1.5,0.7,2.2,0.6c0.7-0.1,1.3-0.5,1.6-1.1c0.4-0.5,0.5-1.3,0.2-1.9
	c-0.3-0.7-0.9-1.3-1.6-1.7L180.3,362.9z M176.5,369.1l-2.6,4.4l3.9,2.4c0.8,0.6,1.8,0.9,2.7,0.9c0.8,0,1.5-0.5,1.8-1.1
	c0.4-0.6,0.4-1.4,0.1-2.1c-0.5-0.8-1.2-1.5-2-2L176.5,369.1z"/>
<path class="st0" d="M209.9,390.2l7.4,2.3l-0.8,2.6l-10.2-3.1l5.2-17l2.9,0.9L209.9,390.2z"/>
<path class="st0" d="M243.5,384.4c4-3.3,9.7-3,13.4,0.6c3.4,3.6,3.2,9.2-0.3,12.6c-0.1,0.1-0.2,0.1-0.2,0.2
	c-1.9,1.6-4.3,2.5-6.8,2.3c-2.5,0-4.9-1.1-6.6-2.9c-3.4-3.6-3.2-9.2,0.3-12.6C243.4,384.6,243.4,384.5,243.5,384.4L243.5,384.4z
	 M250.2,384.8c-1.7-0.1-3.4,0.5-4.6,1.6c-2.6,2.3-2.8,6.2-0.5,8.8c0,0.1,0.1,0.1,0.1,0.2c1.1,1.2,2.7,2,4.4,2
	c3.5,0.1,6.4-2.6,6.6-6.1c0.1-1.7-0.5-3.3-1.7-4.5C253.5,385.6,251.9,384.8,250.2,384.8L250.2,384.8z"/>
<path class="st0" d="M282.6,382.5c2.9-4.2,8.5-5.6,13-3.1c4.2,2.5,5.7,7.9,3.2,12.2c-0.1,0.1-0.1,0.2-0.2,0.3
	c-2.9,4.2-8.5,5.6-13,3.1c-2.1-1.2-3.6-3.2-4.1-5.6C280.8,387,281.2,384.5,282.6,382.5z M289.1,381c-1.7,0.4-3.1,1.4-4,2.8
	c-0.9,1.4-1.2,3.2-0.8,4.8c0.4,1.7,1.4,3.1,2.9,3.9c1.4,0.9,3.2,1.2,4.8,0.8c1.6-0.4,3.1-1.4,3.9-2.9c0.9-1.4,1.2-3.2,0.8-4.8
	c-0.4-1.6-1.4-3.1-2.9-3.9C292.5,380.9,290.8,380.6,289.1,381L289.1,381z"/>
<path class="st0" d="M342.4,374.4l-2.4,1.4l-6.7-11.5l0.9,12.7l-1.7,1l-10.6-7.1l6.7,11.5l-2.5,1.4l-8.9-15.4l3.1-1.8l11,7.3
	l-0.9-13.2l3.1-1.8L342.4,374.4z"/>
<path class="st3" d="M281.1,353.3c-7,11.4-15.5,12.9-23.6,9.5c0-1.8,0.2-3.5,0.4-5.3c1.6-12.2,17.1-32.5,17.3-32.7
	c-0.2,0.1-16,13.3-21.3,29.7c-0.6,1.8-1.1,3.7-1.4,5.6c-8.4-5.7-12.4-14.5-4.7-27.2c8.1-13.2,35-19.9,35-19.9
	S289.2,340.1,281.1,353.3z"/>
<g>
	<defs>
		<rect id="SVGID_1_" x="226.7" y="297.1" width="37.3" height="49.5"/>
	</defs>
	<clipPath id="SVGID_2_">
		<use xlink:href="#SVGID_1_"  style="overflow:visible;"/>
	</clipPath>
	<g class="st4">
		<path class="st5" d="M263.2,317.6c-5.9,2.8-12,6.5-15.8,11.2c-5.7-8.9-10.5-18.4-10.6-18.7c1.9,7.6,4.8,14.9,8.5,21.8
			c-3.1,5.3-4.1,10-3.5,14c-4-1.4-7.7-4.7-10.9-10.6c-6.9-12.9,0.4-38.1,0.4-38.1S256.1,304.8,263.2,317.6z"/>
	</g>
</g>
</svg>
