<?xml version="1.0" encoding="utf-8"?>
<!-- Generator: Adobe Illustrator 23.1.1, SVG Export Plug-In . SVG Version: 6.00 Build 0)  -->
<svg version="1.1" id="圖層_1" xmlns="http://www.w3.org/2000/svg" xmlns:xlink="http://www.w3.org/1999/xlink" x="0px" y="0px"
	 viewBox="0 0 913.1 1080" style="enable-background:new 0 0 913.1 1080;" xml:space="preserve">
<style type="text/css">
	.st0{clip-path:url(#SVGID_2_);}
	.st1{filter:url(#Adobe_OpacityMaskFilter);}
	.st2{fill-opacity:0.46;}
	.st3{mask:url(#b93d013ac1_1_);}
	.st4{clip-path:url(#SVGID_4_);}
	.st5{clip-path:url(#SVGID_6_);}
	.st6{filter:url(#Adobe_OpacityMaskFilter_1_);}
	.st7{filter:url(#c2df3c1195);}
	.st8{mask:url(#SVGID_7_);}
	.st9{clip-path:url(#SVGID_9_);}
	.st10{clip-path:url(#SVGID_11_);}
	.st11{filter:url(#Adobe_OpacityMaskFilter_2_);}
	.st12{mask:url(#aa0fe453e3_1_);}
</style>
<filter  height="100%" id="c2df3c1195" width="100%" x="0%" y="0%">
	<feColorMatrix  color-interpolation-filters="sRGB" values="0 0 0 0 1 0 0 0 0 1 0 0 0 0 1 0.2126 0.7152 0.0722 0 0">
		</feColorMatrix>
</filter>
<g>
	<defs>
		<rect id="SVGID_1_" x="0" y="1.5" width="913.1" height="1078.5"/>
	</defs>
	<clipPath id="SVGID_2_">
		<use xlink:href="#SVGID_1_"  style="overflow:visible;"/>
	</clipPath>
	<g class="st0">
		<g transform="matrix(1.184758, 0, 0, 1.186126, 755.20972, -106.877159)">
			
				<image style="overflow:visible;enable-background:new    ;" width="578" height="866" xlink:href="D9046631374C7EA6.jpeg"  transform="matrix(1.3333 0 0 1.3333 -637.4379 -30.0354)">
			</image>
		</g>
	</g>
</g>
<defs>
	<filter id="Adobe_OpacityMaskFilter" filterUnits="userSpaceOnUse" x="-0.3" y="-543.5" width="913.3" height="1623.5">
		<feColorMatrix  type="matrix" values="1 0 0 0 0  0 1 0 0 0  0 0 1 0 0  0 0 0 1 0"/>
	</filter>
</defs>
<mask maskUnits="userSpaceOnUse" x="-0.3" y="-543.5" width="913.3" height="1623.5" id="b93d013ac1_1_">
	<g class="st1">
		<rect x="-1198.9" y="-108" class="st2" width="2304" height="1296"/>
	</g>
</mask>
<g class="st3">
	<g transform="matrix(1, 0, 0, 1, 755, 0.000000000000039746)">
		<g>
			<defs>
				<rect id="SVGID_3_" x="-755.3" width="913.3" height="1080"/>
			</defs>
			<clipPath id="SVGID_4_">
				<use xlink:href="#SVGID_3_"  style="overflow:visible;"/>
			</clipPath>
			<g class="st4">
				<g>
					<defs>
						<rect id="SVGID_5_" x="-755" width="913" height="1079.7"/>
					</defs>
					<clipPath id="SVGID_6_">
						<use xlink:href="#SVGID_5_"  style="overflow:visible;"/>
					</clipPath>
					<g class="st5">
						<defs>
							<filter id="Adobe_OpacityMaskFilter_1_" filterUnits="userSpaceOnUse" x="-755" y="-543.5" width="913" height="1623">
								<feColorMatrix  type="matrix" values="1 0 0 0 0  0 1 0 0 0  0 0 1 0 0  0 0 0 1 0"/>
							</filter>
						</defs>
						<mask maskUnits="userSpaceOnUse" x="-755" y="-543.5" width="913" height="1623" id="SVGID_7_">
							<g class="st6">
								<g transform="matrix(0, -0.633984, 0.634028, 0, 0.208232, 809.649939)" class="st7">
									
										<image style="overflow:visible;enable-background:new    ;" width="1920" height="1080" xlink:href="D9046631374C7EAA.jpg"  transform="matrix(1.3333 0 0 1.3333 -425.6943 -2778.863)">
									</image>
								</g>
							</g>
						</mask>
						<g class="st8">
							<g transform="matrix(0, -0.633984, 0.634028, 0, 0.208232, 809.649939)">
								<g style="enable-background:new    ;">
									
										<image style="overflow:visible;" width="1920" height="1080" xlink:href="D9046631374C7EAD.png"  transform="matrix(1.3333 0 0 1.3333 -425.6943 -1191.1307)">
									</image>
								</g>
							</g>
						</g>
					</g>
				</g>
			</g>
		</g>
	</g>
</g>
<g>
	<defs>
		<rect id="SVGID_8_" x="250.8" y="296.4" width="434.3" height="404.9"/>
	</defs>
	<clipPath id="SVGID_9_">
		<use xlink:href="#SVGID_8_"  style="overflow:visible;"/>
	</clipPath>
	<g class="st9">
		<g transform="matrix(0.170661, 0, 0, 0.170661, 943.286623, 211.239434)">
			
				<image style="overflow:visible;enable-background:new    ;" width="1908" height="1908" xlink:href="D9046631374C7EAE.jpeg"  transform="matrix(1.3333 0 0 1.3333 -4057.854 412.5908)">
			</image>
		</g>
	</g>
</g>
<g>
	<defs>
		<rect id="SVGID_10_" x="196.6" y="269.3" width="519.8" height="544.8"/>
	</defs>
	<clipPath id="SVGID_11_">
		<use xlink:href="#SVGID_10_"  style="overflow:visible;"/>
	</clipPath>
	<g class="st10">
		<defs>
			<filter id="Adobe_OpacityMaskFilter_2_" filterUnits="userSpaceOnUse" x="194.4" y="268.8" width="524.2" height="545.3">
				<feColorMatrix  type="matrix" values="1 0 0 0 0  0 1 0 0 0  0 0 1 0 0  0 0 0 1 0"/>
			</filter>
		</defs>
		<mask maskUnits="userSpaceOnUse" x="194.4" y="268.8" width="524.2" height="545.3" id="aa0fe453e3_1_">
			<g class="st11">
				<g transform="matrix(0.364683, 0, 0, 0.364538, 901.023465, 201.617146)" class="st7">
					
						<image style="overflow:visible;enable-background:new    ;" width="1078" height="1122" xlink:href="D9046631374C7EAE.jpg"  transform="matrix(1.3333 0 0 1.3333 -1937.5873 184.3586)">
					</image>
				</g>
			</g>
		</mask>
		<g class="st12">
			<g transform="matrix(0.364683, 0, 0, 0.364538, 901.023465, 201.617146)">
				<g style="enable-background:new    ;">
					
						<image style="overflow:visible;" width="1078" height="1122" xlink:href="D9046631374C7EAB.png"  transform="matrix(1.3333 0 0 1.3333 -1937.5873 184.3586)">
					</image>
				</g>
			</g>
		</g>
	</g>
</g>
<g>
	<g transform="translate(214.148872, 431.246494)">
	</g>
</g>
<g>
	<g transform="translate(249.353208, 431.246494)">
	</g>
</g>
<g>
	<g transform="translate(396.432622, 431.246494)">
	</g>
</g>
<g>
	<g transform="translate(448.259477, 431.246494)">
	</g>
</g>
<g>
	<g transform="translate(492.164161, 431.246494)">
	</g>
</g>
<g>
	<g transform="translate(530.481038, 431.246494)">
	</g>
</g>
<g>
	<g transform="translate(128.34612, 457.496493)">
	</g>
</g>
<g>
	<g transform="translate(154.700159, 457.496493)">
	</g>
</g>
<g>
	<g transform="translate(311.145715, 457.496493)">
	</g>
</g>
<g>
	<g transform="translate(398.130055, 457.496493)">
	</g>
</g>
<g>
	<g transform="translate(496.083213, 457.496493)">
	</g>
</g>
<g>
	<g transform="translate(118.248915, 483.746492)">
	</g>
</g>
<g>
	<g transform="translate(175.091378, 483.746492)">
	</g>
</g>
<g>
	<g transform="translate(194.12352, 483.746492)">
	</g>
</g>
<g>
	<g transform="translate(214.815043, 483.746492)">
	</g>
</g>
<g>
	<g transform="translate(282.945323, 483.746492)">
	</g>
</g>
<g>
	<g transform="translate(382.642194, 483.746492)">
	</g>
</g>
<g>
	<g transform="translate(448.981874, 483.746492)">
	</g>
</g>
<g>
	<g transform="translate(476.564034, 483.746492)">
	</g>
</g>
<g>
	<g transform="translate(570.748447, 483.746492)">
	</g>
</g>
<g>
	<g transform="translate(144.537337, 509.99649)">
	</g>
</g>
<g>
	<g transform="translate(160.681688, 509.99649)">
	</g>
</g>
<g>
	<g transform="translate(230.265368, 509.99649)">
	</g>
</g>
<g>
	<g transform="translate(254.594396, 509.99649)">
	</g>
</g>
<g>
	<g transform="translate(350.18499, 509.99649)">
	</g>
</g>
<g>
	<g transform="translate(423.602817, 509.99649)">
	</g>
</g>
<g>
	<g transform="translate(166.934825, 536.246489)">
	</g>
</g>
<g>
	<g transform="translate(218.761653, 536.246489)">
	</g>
</g>
<g>
	<g transform="translate(250.97535, 536.246489)">
	</g>
</g>
<g>
	<g transform="translate(356.250678, 536.246489)">
	</g>
</g>
<g>
	<g transform="translate(395.60819, 536.246489)">
	</g>
</g>
<g>
	<g transform="translate(597.083253, 729.337183)">
	</g>
</g>
<g>
	<g transform="translate(239.746851, 729.337183)">
	</g>
</g>
</svg>
