<?xml version="1.0" encoding="utf-8"?>
<!-- Generator: Adobe Illustrator 23.1.1, SVG Export Plug-In . SVG Version: 6.00 Build 0)  -->
<svg version="1.1" id="圖層_1" xmlns="http://www.w3.org/2000/svg" xmlns:xlink="http://www.w3.org/1999/xlink" x="0px" y="0px"
	 viewBox="0 0 24 24" style="enable-background:new 0 0 24 24;" xml:space="preserve">
<style type="text/css">
	.st0{fill:#D9CD90;}
</style>
<title>Instagram Copy</title>
<desc>Created with Sketch.</desc>
<g>
	<path class="st0" d="M21,0H2.9C1.3,0,0,1.3,0,2.8v18.3c0,1.6,1.3,2.8,2.9,2.8h18.2c1.6,0,2.9-1.3,2.9-2.8V2.8C23.9,1.3,22.6,0,21,0
		z M19.7,8.3c-0.3-1.2-0.8-2.2-1.5-3.1c-1.4-1.7-3.4-2.5-6.1-2.6c-2.7,0-4.7,0.9-6,2.5C4.9,6.8,4.3,9.1,4.3,12
		c0,2.9,0.7,5.1,1.9,6.7c1.3,1.7,3.3,2.5,6,2.5c2.4,0,4-0.6,5.3-1.9c1.5-1.5,1.5-3.4,1-4.5c-0.3-0.7-0.8-1.2-1.5-1.6
		c-0.2,1.3-0.5,2.3-1.2,3c-0.8,1-1.9,1.6-3.4,1.7c-1.1,0.1-2.2-0.2-3-0.7c-1-0.6-1.5-1.6-1.6-2.8c-0.1-2.3,1.7-3.9,4.4-4
		c1-0.1,1.9,0,2.8,0.1c-0.1-0.7-0.3-1.2-0.7-1.6c-0.5-0.5-1.2-0.8-2.2-0.8c0,0,0,0,0,0c-0.8,0-1.8,0.2-2.5,1.2L8.1,8.1
		C8.9,6.7,10.4,6,12.1,6c0,0,0,0,0,0c2.9,0,4.7,1.8,4.8,5c0.1,0,0.2,0.1,0.3,0.1c1.4,0.7,2.4,1.6,2.9,2.9c0.7,1.7,0.8,4.5-1.4,6.7
		c-1.7,1.7-3.7,2.5-6.6,2.5h0c-3.3,0-5.8-1.1-7.5-3.3C3.1,18,2.4,15.3,2.3,12l0,0l0,0c0-3.3,0.8-6,2.3-7.9c1.7-2.2,4.2-3.3,7.5-3.3
		h0c3.3,0,5.8,1.1,7.6,3.3c0.9,1.1,1.5,2.3,1.9,3.8L19.7,8.3z"/>
	<path class="st0" d="M12.4,12.3c-2,0.1-2.7,1.1-2.6,2c0.1,1.2,1.3,1.7,2.5,1.7c1.2-0.1,2.5-0.5,2.8-3.4c-0.6-0.1-1.3-0.2-2-0.2
		C12.8,12.2,12.6,12.2,12.4,12.3z"/>
</g>
</svg>
